<?xml version="1.0" encoding="utf-8"?>
<!-- Generator: Adobe Illustrator 16.0.4, SVG Export Plug-In . SVG Version: 6.00 Build 0)  -->
<!DOCTYPE svg PUBLIC "-//W3C//DTD SVG 1.1//EN" "http://www.w3.org/Graphics/SVG/1.1/DTD/svg11.dtd">
<svg version="1.1" id="Layer_1" xmlns="http://www.w3.org/2000/svg" xmlns:xlink="http://www.w3.org/1999/xlink" x="0px" y="0px"
	 width="112.5px" height="285.501px" viewBox="0 0 112.5 285.501" enable-background="new 0 0 112.5 285.501" xml:space="preserve">
<g>
	<rect x="71.145" y="146.5" fill="#C63145" width="4.522" height="100"/>
	<rect x="37.5" y="146.5" fill="#292729" width="4.522" height="100"/>
	<ellipse fill="#5D5D5D" cx="56.667" cy="137.667" rx="31.167" ry="17.667"/>
	<linearGradient id="SVGID_1_" gradientUnits="userSpaceOnUse" x1="14.915" y1="95.6665" x2="98.4189" y2="95.6665">
		<stop  offset="0" style="stop-color:#BDBDBD"/>
		<stop  offset="0.6368" style="stop-color:#8D8E90"/>
		<stop  offset="0.7426" style="stop-color:#939496"/>
		<stop  offset="1" style="stop-color:#BEC0C2"/>
	</linearGradient>
	<path fill="url(#SVGID_1_)" d="M98.419,128.667c0,13.07-18.693,23.667-41.752,23.667s-41.752-10.596-41.752-23.667v-66
		C14.915,49.596,33.608,39,56.667,39s41.752,10.596,41.752,23.667V128.667z"/>
	<ellipse fill="#F4F4F4" cx="56.667" cy="61.833" rx="41.752" ry="22.833"/>
	<ellipse fill="#848589" cx="56.667" cy="62.667" rx="40.419" ry="21.999"/>
	<linearGradient id="SVGID_2_" gradientUnits="userSpaceOnUse" x1="21.625" y1="56.6665" x2="91.709" y2="56.6665">
		<stop  offset="0" style="stop-color:#BDBDBD"/>
		<stop  offset="0.6368" style="stop-color:#8D8E90"/>
		<stop  offset="0.7426" style="stop-color:#939496"/>
		<stop  offset="1" style="stop-color:#BEC0C2"/>
	</linearGradient>
	<path fill="url(#SVGID_2_)" d="M89.667,51.667c0-10.677-14.774-19.333-33-19.333c-18.224,0-33,8.657-33,19.333l-2.042,10
		C21.625,72.344,37.313,81,56.667,81s35.042-8.656,35.042-19.333L89.667,51.667z"/>
	<ellipse fill="#848589" cx="56.667" cy="51.667" rx="31.167" ry="17.667"/>
	<linearGradient id="SVGID_3_" gradientUnits="userSpaceOnUse" x1="46.334" y1="49.5005" x2="67" y2="49.5005">
		<stop  offset="0.1166" style="stop-color:#9B9D9F"/>
		<stop  offset="0.5801" style="stop-color:#8D8E90"/>
		<stop  offset="0.7426" style="stop-color:#939496"/>
		<stop  offset="1" style="stop-color:#AAACAE"/>
	</linearGradient>
	<path fill="url(#SVGID_3_)" d="M56.667,41.5c-5.707,0-10.333,2.239-10.333,5v6c0,2.761,4.626,5,10.333,5S67,55.262,67,52.5v-6
		C67,43.739,62.374,41.5,56.667,41.5z"/>
	<ellipse cx="71.5" cy="59.167" rx="4.167" ry="3"/>
	<ellipse cx="40.5" cy="43.5" rx="4.167" ry="3"/>
	<path opacity="0.5" d="M20.5,62.667"/>
	<path d="M21.625,92.625V115.5c0,0-4.375-2.375-4.375-11.438s0-14.562,0-14.562S18.875,89,21.625,92.625z"/>
	<linearGradient id="SVGID_4_" gradientUnits="userSpaceOnUse" x1="38.5" y1="122.375" x2="38.5" y2="100.25">
		<stop  offset="0" style="stop-color:#000000"/>
		<stop  offset="1" style="stop-color:#333333"/>
	</linearGradient>
	<path fill="url(#SVGID_4_)" d="M33.75,122.375V100.25c0,0,9.5,0.375,9.5,4s0,10.125,0,10.125S43,120.5,33.75,122.375z"/>
	<linearGradient id="SVGID_5_" gradientUnits="userSpaceOnUse" x1="33.75" y1="110.8125" x2="41.3818" y2="110.8125">
		<stop  offset="0" style="stop-color:#8A8A8A"/>
		<stop  offset="1" style="stop-color:#545152"/>
	</linearGradient>
	<path fill="url(#SVGID_5_)" d="M33.75,121.375V100.25c0,0,7.5,0.375,7.5,4s0,10.125,0,10.125S43,119.5,33.75,121.375z"/>
	<ellipse fill="#3F2812" cx="56.667" cy="46.5" rx="9.334" ry="4.274"/>
	<g>
		<linearGradient id="SVGID_6_" gradientUnits="userSpaceOnUse" x1="14.915" y1="75.5" x2="98.4189" y2="75.5">
			<stop  offset="0.1166" style="stop-color:#F2F2F2"/>
			<stop  offset="0.5801" style="stop-color:#8D8E90"/>
			<stop  offset="0.7426" style="stop-color:#939496"/>
			<stop  offset="1" style="stop-color:#EDEDED"/>
		</linearGradient>
		<path fill="url(#SVGID_6_)" d="M56.667,88.333c23.059,0,41.752-10.596,41.752-23.667v-2c0,13.07-18.693,23.667-41.752,23.667
			S14.915,75.737,14.915,62.667v2C14.915,77.737,33.608,88.333,56.667,88.333z"/>
	</g>
	<g>
		<linearGradient id="SVGID_7_" gradientUnits="userSpaceOnUse" x1="24.5" y1="62.4995" x2="88.834" y2="62.4995">
			<stop  offset="0.1166" style="stop-color:#F2F2F2"/>
			<stop  offset="0.5801" style="stop-color:#8D8E90"/>
			<stop  offset="0.7426" style="stop-color:#939496"/>
			<stop  offset="1" style="stop-color:#EDEDED"/>
		</linearGradient>
		<path fill="url(#SVGID_7_)" d="M56.667,72.387c17.766,0,32.167-8.164,32.167-18.234v-1.541c0,10.07-14.401,18.234-32.167,18.234
			S24.5,62.682,24.5,52.612v1.541C24.5,64.223,38.901,72.387,56.667,72.387z"/>
	</g>
	<linearGradient id="SVGID_8_" gradientUnits="userSpaceOnUse" x1="53.667" y1="36.875" x2="59.667" y2="36.875">
		<stop  offset="0.0764" style="stop-color:#B8ACA2"/>
		<stop  offset="0.1608" style="stop-color:#EDEDED"/>
		<stop  offset="0.5963" style="stop-color:#9D8E87"/>
		<stop  offset="0.8507" style="stop-color:#9C948F"/>
		<stop  offset="1" style="stop-color:#ACA49D"/>
	</linearGradient>
	<path fill="url(#SVGID_8_)" d="M53.667,25.75V46.5c0,0.829,1.343,1.5,3,1.5s3-0.671,3-1.5V25.75H53.667z"/>
	<rect x="63.318" y="23.562" fill="#E8E9EE" width="1" height="10.875"/>
	<rect x="60.318" y="21.656" fill="#E8E9EE" width="1" height="10.719"/>
	<rect x="57.318" y="21.25" fill="#E8E9EE" width="1" height="10.625"/>
	<rect x="54.318" y="21.25" fill="#E8E9EE" width="1" height="10.625"/>
	<rect x="51.318" y="22" fill="#E8E9EE" width="1" height="10.875"/>
	<rect x="48.75" y="23.75" fill="#E8E9EE" width="1" height="10.875"/>
	<path fill="#D6D6D8" d="M48.584,25.75v9c0,2.347,3.619,4.25,8.083,4.25s8.083-1.903,8.083-4.25v-9H48.584z"/>
	<ellipse fill="#E8E9EE" cx="56.667" cy="25.75" rx="8.083" ry="4.25"/>
	<ellipse fill="#FFFFFF" cx="56.667" cy="25.75" rx="4.022" ry="2.25"/>
	<rect x="49.318" y="27" fill="#E8E9EE" width="1" height="10.375"/>
	<rect x="52.318" y="29" fill="#E8E9EE" width="1" height="9.656"/>
	<rect x="55.318" y="30" fill="#E8E9EE" width="1" height="9.25"/>
	<rect x="58.318" y="29" fill="#E8E9EE" width="1" height="10"/>
	<rect x="61.318" y="28" fill="#E8E9EE" width="1" height="10.25"/>
	<rect x="63.75" y="26.083" fill="#E8E9EE" width="1" height="10.792"/>
	<ellipse cx="56.667" cy="25.75" rx="3.437" ry="1.547"/>
	<rect x="72.062" y="245" fill="#B2B2B2" width="2.688" height="27.167"/>
	<rect x="38.238" y="245" fill="#B2B2B2" width="2.69" height="27.167"/>
	<rect x="36" y="232.334" fill="#262626" width="7.167" height="20.916"/>
	<rect x="70" y="232.334" fill="#262626" width="7.167" height="20.916"/>
</g>
</svg>
