<?xml version="1.0" encoding="utf-8"?>
<!-- Generator: Adobe Illustrator 16.0.4, SVG Export Plug-In . SVG Version: 6.00 Build 0)  -->
<!DOCTYPE svg PUBLIC "-//W3C//DTD SVG 1.1//EN" "http://www.w3.org/Graphics/SVG/1.1/DTD/svg11.dtd">
<svg version="1.1" id="Layer_1" xmlns="http://www.w3.org/2000/svg" xmlns:xlink="http://www.w3.org/1999/xlink" x="0px" y="0px"
	 width="100px" height="100px" viewBox="0 0 100 100" enable-background="new 0 0 100 100" xml:space="preserve">
<g>
	<path fill="#B42B25" d="M4.926,78.645c-4.867-4.868-5.312-12.603-1.035-17.992L4.03,60.49l1.478-1.586l32.318-32.321l3.833,3.832
		L9.407,62.667L8.075,64.1c-2.5,3.228-2.213,7.815,0.683,10.713c2.896,2.896,7.484,3.183,10.711,0.684l1.503-1.4l55.989-55.991
		l0.12-0.097c5.39-4.277,13.124-3.833,17.992,1.035c4.868,4.868,5.312,12.602,1.034,17.991l-0.205,0.231l-40.62,40.619l-3.832-3.831
		l40.502-40.502c2.47-3.226,2.175-7.79-0.711-10.676c-2.886-2.886-7.45-3.181-10.677-0.711l-55.83,55.83l-1.818,1.684
		C17.528,83.956,9.793,83.512,4.926,78.645z"/>
	<line fill="none" stroke="#454545" stroke-width="3" stroke-miterlimit="10" x1="38.306" y1="29.744" x2="49.131" y2="18.919"/>
	<line fill="none" stroke="#454545" stroke-width="3" stroke-miterlimit="10" x1="44.437" y1="84.926" x2="55.263" y2="74.101"/>
	<rect x="31.239" y="23.591" transform="matrix(0.7071 0.7071 -0.7071 0.7071 33.8557 -14.7735)" width="7.045" height="19.78"/>
	<rect x="54.806" y="61.143" transform="matrix(0.7072 0.707 -0.707 0.7072 67.2994 -20.4404)" width="7.046" height="19.781"/>
</g>
</svg>
