<?xml version="1.0" encoding="utf-8"?>
<!-- Generator: Adobe Illustrator 15.1.0, SVG Export Plug-In . SVG Version: 6.00 Build 0)  -->
<!DOCTYPE svg PUBLIC "-//W3C//DTD SVG 1.1//EN" "http://www.w3.org/Graphics/SVG/1.1/DTD/svg11.dtd">
<svg version="1.1" id="Layer_1" xmlns="http://www.w3.org/2000/svg" xmlns:xlink="http://www.w3.org/1999/xlink" x="0px" y="0px"
	 width="595.28px" height="354.217px" viewBox="0 0 595.28 354.217" enable-background="new 0 0 595.28 354.217"
	 xml:space="preserve">
<g opacity="0.5">
	<path fill="#FFFFFF" stroke="#000000" stroke-width="2" stroke-miterlimit="10" d="M355,237.44h112v-112H350v102H236v75.5H59v-243
		h115.706v-16h-10v6H49v263h187v7h10v-12v-70.5h104H355z M360,135.44h97v92h-97V135.44z"/>
	<polygon fill="#FFFFFF" stroke="#000000" stroke-width="2" stroke-miterlimit="10" points="270,49.94 270,43.94 260,43.94 
		260,54.94 260,147.94 144.706,147.94 144.706,232.44 154.706,232.44 154.706,157.94 270,157.94 270,59.94 537,59.94 537,302.94 
		345,302.94 345,319.94 355,319.94 355,312.94 547,312.94 547,49.94 	"/>
</g>
<g>
	<path d="M220.5,24.94l-0.257,79v0.027c-0.008,2.336-1.907,4.223-4.243,4.215l-109-0.354l3.887-3.888l-0.542,166.25L107,266.844
		l91,0.297l-3.049,3.049l0.253-77.5v-0.019c0.005-1.539,1.257-2.783,2.796-2.778l116,0.378l-2.419,2.419l0.319-97.805v-0.014
		c0.004-1.156,0.943-2.09,2.1-2.086l191,0.623h0.01c0.813,0.003,1.471,0.664,1.468,1.478l-0.571,175.305v0.006
		c-0.002,0.499-0.407,0.902-0.906,0.9l-210.36-0.686l0.221-0.221l-0.221,67.75l-0.221-67.75c0-0.121,0.098-0.221,0.219-0.221h0.001
		L505,269.284l-0.906,0.906l-0.571-175.305L505,96.362l-191,0.623l2.1-2.1l0.319,97.805c0.004,1.331-1.072,2.414-2.403,2.419H314
		l-116,0.378l2.796-2.797l0.253,77.5c0.005,1.679-1.351,3.044-3.03,3.049H198l-91,0.297c-1.842,0.006-3.339-1.482-3.346-3.324
		v-0.021l-0.542-166.25c-0.007-2.14,1.722-3.88,3.862-3.888H107l109-0.354l-4.243,4.242l-0.257-79c-0.008-2.485,2-4.506,4.485-4.515
		s4.506,2,4.515,4.485C220.5,24.912,220.5,24.939,220.5,24.94z"/>
</g>
</svg>
