<?xml version="1.0" encoding="utf-8"?>
<!-- Generator: Adobe Illustrator 15.1.0, SVG Export Plug-In . SVG Version: 6.00 Build 0)  -->
<!DOCTYPE svg PUBLIC "-//W3C//DTD SVG 1.1//EN" "http://www.w3.org/Graphics/SVG/1.1/DTD/svg11.dtd">
<svg version="1.1" id="Layer_1" xmlns="http://www.w3.org/2000/svg" xmlns:xlink="http://www.w3.org/1999/xlink" x="0px" y="0px"
	 width="380.723px" height="226.506px" viewBox="0 0 380.723 226.506" enable-background="new 0 0 380.723 226.506"
	 xml:space="preserve">
<path d="M229.268,195.062l-79.48-156.266l3.485,2.129L37.978,40.383l3.375-3.375l-0.564,156l-2.811-2.812l115.294,0.562
	l-2.002,1.224l80.519-155.734l0.006-0.012c0.295-0.57,0.877-0.896,1.478-0.895l115.295,0.542h0.009
	c0.619,0.003,1.118,0.506,1.116,1.125l-0.563,156c0.001,0.309-0.248,0.56-0.557,0.562h-0.005l-115.295-0.562l115.295-0.562
	l-0.562,0.562l-0.563-156l1.125,1.125l-115.295,0.542l1.483-0.906l-79.481,156.266c-0.392,0.771-1.171,1.219-1.981,1.225
	l-0.021-0.001l-115.294,0.562c-1.545,0.008-2.804-1.239-2.811-2.784v-0.003v-0.024l-0.564-156c-0.007-1.856,1.491-3.366,3.347-3.375
	h0.028l115.294-0.542c1.508-0.007,2.819,0.845,3.47,2.097l0.016,0.033l80.52,155.733c1.141,2.208,0.276,4.923-1.932,6.064
	c-2.207,1.142-4.922,0.277-6.064-1.931C229.281,195.087,229.27,195.062,229.268,195.062z"/>
</svg>
