<?xml version="1.0" encoding="utf-8"?>
<!-- Generator: Adobe Illustrator 15.1.0, SVG Export Plug-In . SVG Version: 6.00 Build 0)  -->
<!DOCTYPE svg PUBLIC "-//W3C//DTD SVG 1.1//EN" "http://www.w3.org/Graphics/SVG/1.1/DTD/svg11.dtd">
<svg version="1.1" id="Layer_1" xmlns="http://www.w3.org/2000/svg" xmlns:xlink="http://www.w3.org/1999/xlink" x="0px" y="0px"
	 width="333.734px" height="310.843px" viewBox="0 0 333.734 310.843" enable-background="new 0 0 333.734 310.843"
	 xml:space="preserve">
<path d="M173.726,36.188l77.602,242.392l0.012,0.037c0.74,2.311-0.534,4.784-2.845,5.523c-1.384,0.443-2.845,0.15-3.938-0.641
	L39.302,133.013l-0.023-0.017c-1.468-1.076-1.785-3.138-0.709-4.606c0.645-0.878,1.66-1.345,2.672-1.347l254.509,1.1l0.019,0
	c1.214,0.005,2.193,0.993,2.188,2.206c-0.003,0.726-0.368,1.376-0.913,1.773L90.494,280.83l-0.008,0.006
	c-0.492,0.354-1.179,0.242-1.533-0.25c-0.212-0.295-0.255-0.664-0.151-0.985l79.693-241.713L90.894,280.28l-1.692-1.229
	l205.256-150.487l1.293,3.98l-254.509,1.1l1.939-5.97L249.729,276.38l-6.771,4.919L163.265,39.587
	c-0.951-2.885,0.616-5.995,3.501-6.946s5.994,0.616,6.945,3.501C173.713,36.147,173.725,36.183,173.726,36.188z"/>
</svg>
