<?xml version="1.0" encoding="utf-8"?>
<!-- Generator: Adobe Illustrator 15.1.0, SVG Export Plug-In . SVG Version: 6.00 Build 0)  -->
<!DOCTYPE svg PUBLIC "-//W3C//DTD SVG 1.1//EN" "http://www.w3.org/Graphics/SVG/1.1/DTD/svg11.dtd">
<svg version="1.1" id="Layer_1" xmlns="http://www.w3.org/2000/svg" xmlns:xlink="http://www.w3.org/1999/xlink" x="0px" y="0px"
	 width="344px" height="386px" viewBox="0 0 344 386" enable-background="new 0 0 344 386" xml:space="preserve">
<g id="Layer_2" display="none">
	<rect display="inline" fill="#001DBF" width="500" height="500"/>
</g>
<g>
	<path opacity="0.7" enable-background="new    " d="M49.203,72.819c-7.438-13.416-13.831-27.878-21.059-41.507
		c8.894,3.924,17.638,10.644,26.248,15.87c0.606,0.003,0.388,0.833,1.22,0.609c4.438,3.193,9.364,5.897,13.734,9.157
		c0.835,0.284,1.301,0.937,2.136,1.221c-0.167,1.562-0.765,2.694-1.525,3.662c-3.038-1.947-5.946-4.023-8.851-6.104
		c-1.153,6.985-3.931,12.346-9.155,15.259c0.606,1.937,1.664,3.423,2.441,5.189c0,0.102,0,0.204,0,0.305
		c-1.408-0.188-1.756,0.686-3.053,0.611C50.629,75.666,49.915,74.243,49.203,72.819z M41.574,52.065
		c2.316-1.347,2.987-4.338,3.663-7.324c-3.816-2.289-7.348-4.859-10.987-7.325C36.424,42.564,39.468,46.846,41.574,52.065z
		 M43.1,54.812c2.549,4.571,5.126,9.116,7.324,14.039c5.016-2.614,7.594-7.667,8.241-14.649c-3.643-2.665-7.255-5.361-11.292-7.63
		C46.572,49.942,44.988,52.528,43.1,54.812z"/>
	<path opacity="0.7" fill="#FFFFFF" enable-background="new    " d="M34.249,37.415c3.639,2.466,7.171,5.037,10.987,7.325
		c-0.676,2.986-1.347,5.977-3.663,7.324C39.468,46.846,36.424,42.564,34.249,37.415z"/>
	<path opacity="0.7" fill="#FFFFFF" enable-background="new    " d="M47.373,46.571c4.038,2.27,7.649,4.966,11.292,7.63
		c-0.647,6.982-3.226,12.035-8.241,14.649c-2.198-4.923-4.775-9.468-7.324-14.039C44.988,52.528,46.572,49.942,47.373,46.571z"/>
	<path opacity="0.7" enable-background="new    " d="M23.567,54.812c0.822-0.704,2.943-0.109,4.273-0.306
		C27.017,55.209,24.896,54.615,23.567,54.812z"/>
	<path opacity="0.7" fill="#FFFFFF" enable-background="new    " d="M247.889,62.442c0.507,0.826,0.507,3.752,0,4.578
		C247.889,65.493,247.889,63.968,247.889,62.442z"/>
	<path opacity="0.7" enable-background="new    " d="M161.517,63.052c6.391,8.345,4.438,25.771,0.305,35.099
		C162.554,87.977,163.485,73.634,161.517,63.052z"/>
	<path opacity="0.5" enable-background="new    " d="M132.219,76.481c-0.826,0.507-3.752,0.507-4.578,0
		C129.165,76.481,130.692,76.481,132.219,76.481z"/>
	<path opacity="0.5" enable-background="new    " d="M55.917,79.228c-2.275,2.811-5.543,4.629-8.545,6.714
		c-0.287-1.919,2.167-3.729,2.137-6.409C51.26,79.047,53.727,79.275,55.917,79.228z"/>
	<path opacity="0.7" enable-background="new    " d="M27.84,93.878c1.628,0,3.255,0,4.884,0
		C31.797,94.384,28.766,94.384,27.84,93.878z"/>
	<path opacity="0.7" enable-background="new    " d="M149.614,103.644c0.727-0.507,3.547-0.507,4.273,0
		C152.464,103.644,151.038,103.644,149.614,103.644z"/>
	<path opacity="0.7" enable-background="new    " d="M166.096,115.547c0.506,0.526,0.506,3.137,0,3.663
		C166.096,117.988,166.096,116.767,166.096,115.547z"/>
	<path opacity="0.7" enable-background="new    " d="M100.477,142.404c-1.127,0.507-4.364,0.507-5.494,0
		C96.814,142.404,98.646,142.404,100.477,142.404z"/>
	<path fill="#FFFFFF" d="M128.251,143.93c1.156,0.767,1.636,3.178,0.916,4.884c-0.782,0.743-2.416,0.636-3.967,0.61
		C122.896,147.667,123.886,142.611,128.251,143.93z"/>
	<path opacity="0.7" enable-background="new    " d="M36.69,149.425c3.716,4.123-5.549,7.238-5.799,1.83
		C33.086,152.859,35.871,151.083,36.69,149.425z"/>
	<path fill="#FFFFFF" d="M138.321,154.001c-0.615,1.114-1.807,1.651-2.746,2.441c-0.51,0-1.019,0-1.526,0
		c-0.067-0.238-0.255-0.354-0.61-0.305c-0.855-0.91-0.855-3.667,0-4.577c0.774-0.751,2.838-0.796,3.967-0.307
		C137.888,151.995,138.544,152.558,138.321,154.001z"/>
	<path fill="#FFFFFF" d="M125.2,154.307c0.621,1.144,0.994,3.526,0,4.578c-1.062,0.978-3.824,0.764-4.58-0.305
		C119.005,155.147,122.331,152.373,125.2,154.307z"/>
	<path opacity="0.5" enable-background="new    " d="M302.214,164.074c6.428,1.915,8.484,8.199,11.902,13.123
		c-18.199,2.655-33.153,8.558-52.494,10.071c0.596-3.896-4.094-2.392-3.969,0c-1.842,0.193-3.638,0.434-5.799,0.306
		c-1.098-2.058-2.521-3.789-5.492-3.968C268.649,180.764,288.694,175.68,302.214,164.074z"/>
	<path opacity="0.7" enable-background="new    " d="M211.569,166.209c1.021,0,2.035,0,3.053,0
		C214.292,166.715,211.899,166.715,211.569,166.209z"/>
	<path opacity="0.5" enable-background="new    " d="M242.396,183.912c-1.543,1.308-3.264,2.435-4.271,4.271
		c-4.568,0.297-8.481-0.062-10.684-2.135c0.493-0.424,0.967-0.865,1.526-1.222C233.452,184.532,238.038,184.336,242.396,183.912z"/>
	<path opacity="0.5" enable-background="new    " d="M317.474,183.912c1.023,3.506,1.604,8.152,0.916,12.512
		c-1.363,8.662-5.021,16.818-5.798,25.334c-1.083,11.863,11.343,20.182,19.837,13.428c-0.764,8.451-3.926,14.955-8.85,19.229
		c-2.42,2.1-9.486,5.006-12.819,5.492c-15.597,2.283-24.776-10.588-28.688-22.584c3.176-1.721,10.368-2.705,10.071-6.713
		c-0.261-3.531-11.729-5.201-14.955-7.021c1.082-2.023-3.719-4.889-3.661-0.916c-5.395-1.83-11.203-3.242-16.787-4.883
		c0.498-2.553,1.03-5.074,1.223-7.936C287.917,212.541,306.495,201.217,317.474,183.912z"/>
	<path d="M261.622,187.268c-1.322,0-2.646,0-3.969,0C257.528,184.877,262.218,183.372,261.622,187.268z"/>
	<path opacity="0.7" enable-background="new    " d="M151.446,210.463c1.525,0,3.053,0,4.577,0
		C155.198,210.971,152.271,210.971,151.446,210.463z"/>
	<path opacity="0.5" enable-background="new    " d="M279.02,238.236c1.413,7.031,5.797,12.717,8.851,17.092
		c-12.575-1.463-21.842-6.236-27.771-14.344C267.452,241.115,273.372,239.812,279.02,238.236z"/>
	<path opacity="0.7" fill="#FFFFFF" enable-background="new    " d="M169.452,339.258c0.508,1.434,0.508,4.98,0,6.41
		C169.452,343.531,169.452,341.395,169.452,339.258z"/>
	<path opacity="0.7" fill="#FFFFFF" enable-background="new    " d="M134.049,378.629c1.43,0.199,3.655-0.396,4.579,0.309
		C137.198,378.736,134.973,379.334,134.049,378.629z"/>
	<path opacity="0.7" fill="#FFFFFF" enable-background="new    " d="M147.478,378.936c0.723-0.703,2.74-0.109,3.969-0.309
		C150.724,379.332,148.706,378.738,147.478,378.936z"/>
	<path opacity="0.7" fill="#FFFFFF" enable-background="new    " d="M246.362,379.545c5.088,0,10.174,0,15.262,0
		C257.247,380.053,250.739,380.053,246.362,379.545z"/>
	<path d="M319.612,179.029c1.693,3.437,3.188,10.354,2.44,17.09c-1.108,9.973-9.399,25.439-3.663,33.879
		c3.198,4.703,10.16,5.574,13.43,0c1.228-2.092,1.041-6.139,4.883-6.105c1.16,3.078,0.084,6.568-0.306,9.768
		c-1.683,13.854-6.6,22.703-18.312,27.164c-2.562,0.973-4.92,2.441-7.325,2.746c-6.892,0.871-13.349-1.775-18.007-4.578
		c-17.639-0.371-29.617-6.396-36.319-17.701c0-0.104,0-0.205,0-0.305c1.222,0,2.442,0,3.664,0
		c5.931,8.105,15.194,12.879,27.772,14.344c-3.056-4.375-7.438-10.061-8.853-17.092c1.134-0.189,1.917-0.729,3.054-0.916
		c3.91,11.996,13.092,24.867,28.688,22.584c3.333-0.486,10.4-3.395,12.818-5.492c4.924-4.273,8.088-10.777,8.851-19.229
		c-8.494,6.752-20.92-1.562-19.837-13.428c0.777-8.516,4.436-16.672,5.798-25.334c0.687-4.359,0.108-9.006-0.916-12.512
		C318.255,182.352,318.624,180.383,319.612,179.029z"/>
	<path opacity="0.7" enable-background="new    " d="M226.829,136.91c0.26-0.055,0.287,0.12,0.306,0.306
		c26.571-22.996,52.213-46.88,79.353-69.586c3.756-3.142,7.356-7.412,12.512-8.544c2.85,5.882,0.99,12.934-0.305,18.616
		c-3.988,17.519-11.885,32.083-22.279,43.034c-14.193,14.955-34.188,24.729-53.715,33.267c-1.535,2.433-2.66,5.274-4.271,7.631
		c0.45-0.159,0.771-0.452,1.222-0.611c9.19-4.644,18.402-9.269,27.469-14.04c14.125-6.626,27.277-13.819,42.117-20.143
		c4.664-1.988,9.928-4.729,15.564-4.271c1.611,4.015-0.116,8.446-1.527,11.901c-4.134,10.136-11.345,19.264-18.007,26.858
		c-1.438,0.494-2.118,1.746-3.052,2.747c-13.521,11.607-33.562,16.691-55.854,19.532c-1.406,0.017-2.981-0.136-3.967,0.306
		c-4.357,0.424-8.943,0.62-13.429,0.915c0.681-0.946,0.87-2.385,1.524-3.356c47.896-0.604,82.32-16.725,92.172-56.461
		c-30.926,11.903-60.735,27.569-89.119,43.032c0.166-1.59-0.092-2.757-0.61-3.662c2.907-2.077,4.229-5.74,6.104-8.851
		c-3.01,1.364-6.598,2.153-9.463,3.662c0.506-1.021,1.08-1.973,0.916-3.662c43.545-16.58,83.084-37.165,87.287-93.086
		c-30.52,23.908-59.443,52.054-89.424,77.521C227.938,138.854,227.52,137.748,226.829,136.91z"/>
	<path opacity="0.7" enable-background="new    " d="M148.393,39.857c3.132-1.506,6.765-5.206,11.599-5.798
		c5.207-0.639,10.096,1.573,10.683,4.883c0.717,4.045-2.161,6.279-4.884,7.63c5.541,7.175,9.719,15.715,12.207,25.943
		c0.078,1.855,0.57,3.296,0.916,4.883c1.324,8.425,0.531,18.706-1.525,25.637c-0.25,1.682-1.014,2.854-1.223,4.578
		c-2.446,6.2-5.348,11.944-9.457,16.481c0.141-1.769-0.51-2.748-0.611-4.273c5.996-9.361,9.852-20.526,9.154-36.318
		c-0.717-16.303-7.549-28.936-14.647-38.456c2.775-0.885,6.75-1.622,6.41-4.883c-0.353-3.375-7.444-3.044-10.071-2.137
		c-2.309,0.795-5.123,3.107-7.02,4.883c-8.327,7.788-14.934,22.582-14.956,36.319c-0.481-0.637-0.634-1.605-0.608-2.748
		c-0.209-1.115-0.427-2.218-0.307-3.662c-1.072-13.792,5.215-22.862,11.598-30.215C146.491,41.616,148.057,41.351,148.393,39.857z"
		/>
	<path opacity="0.5" enable-background="new    " d="M54.392,47.182c-8.61-5.227-17.354-11.946-26.248-15.87
		c7.228,13.628,13.621,28.091,21.059,41.507c-0.616,1.521-0.812,3.46-1.221,5.189c-0.865,0.457-2.008,0.636-3.052,0.915
		c0.229,0.688,1.712,0.119,2.442,0.306c-0.921,3.454-2.669,6.08-4.273,8.851c-16.325,6.447-34.004-1.458-32.351-16.786
		c0.6-5.568,6.569-12.235,12.818-12.819c0.984-0.092,5.403-0.25,7.325,0.611c3.604,1.612,5.894,10.219,2.137,14.649
		c-3.047,3.593-11.862,2.868-11.292-3.968c0.301-3.626,3.165-3.482,4.883-6.104c-11.582,1.07-8.443,15.797,1.221,16.175
		c7.748,0.304,11.617-7.938,10.987-14.039c-0.611-5.927-5.293-9.82-7.936-14.04c-2.767-4.419-6.202-9.355-6.104-16.176
		c0.197-13.571,19.953-23.86,31.131-24.721c20.785-1.602,40.389,2.3,56.768,9.156c-3.499,0.583-6.757-0.195-10.683,0
		C81.308,21.05,59.39,30.821,54.392,47.182z"/>
	<path opacity="0.5" enable-background="new    " d="M134.049,72.819c-6.327,0.375-13.81-0.598-18.617-2.747
		c5.472-12.593-6.112-27.118-20.754-24.721c-4.853,0.795-10.11,6.043-11.292,10.377c-1.164,4.269-0.085,10.798,3.662,13.429
		c7.126,5,18.003-2.698,13.734-10.072c-1.174-2.028-2.594-2.324-6.104-3.052c4.163,2.969,6.688,12.767-3.967,10.987
		c-7.393-5.264-2.289-15.543,3.663-17.397c9.953-3.101,18.895,6.022,18.617,14.649c-0.267,8.28-9.843,14.45-17.092,15.261
		c-9.667,1.081-16.877-2.057-20.753-7.02c-1.161-1.487-2.956-4.429-3.052-6.104c-0.21-3.628,2.844-6.368,1.831-11.597
		c4.307-10.851,13.836-16.481,24.722-20.754C86.669,34.925,75.491,44.093,70.264,52.98c-0.687,1.167-1.735,3.201-0.916,3.968
		c-4.37-3.26-9.295-5.964-13.734-9.157c6.801-14.117,23.305-24.048,43.949-25.331c6.558-0.407,14.651-0.687,21.06,1.526
		c4.623,1.597,9.101,5.619,13.123,8.546c4.418,3.213,8.424,6.458,11.903,9.767c0,0.101,0,0.203,0,0.305
		C139.264,49.957,132.977,59.027,134.049,72.819z"/>
	<path d="M69.347,56.949c-0.819-0.767,0.229-2.801,0.916-3.968c5.228-8.887,16.407-18.055,28.384-18.922
		c-10.886,4.272-20.415,9.903-24.722,20.754c1.013,5.229-2.041,7.969-1.831,11.597c0.096,1.675,1.892,4.618,3.052,6.104
		c3.876,4.962,11.086,8.1,20.753,7.02c7.249-0.811,16.825-6.981,17.093-15.261c0.276-8.627-8.666-17.75-18.618-14.649
		c-5.952,1.854-11.056,12.133-3.663,17.397c10.656,1.779,8.13-8.018,3.967-10.987c3.51,0.728,4.931,1.024,6.104,3.052
		c4.269,7.374-6.609,15.072-13.735,10.072c-3.747-2.631-4.826-9.161-3.662-13.429c1.182-4.334,6.439-9.583,11.292-10.377
		c14.641-2.397,26.227,12.128,20.754,24.721c4.807,2.149,12.29,3.122,18.617,2.747c-0.12,1.444,0.098,2.547,0.306,3.662
		c-0.713,0-1.425,0-2.137,0c-1.527,0-3.052,0-4.578,0c-5.507-0.191-9.817-1.577-14.04-3.052
		c-5.246,9.078-24.227,13.545-35.403,6.714c-1.015-0.51-1.652-1.399-2.747-1.831c-1.184-1.36-2.404-2.682-3.662-3.968
		c-0.606-1.428-1.723-2.346-2.136-3.967c-3.923,4.113-7.832,8.242-11.598,12.513c-0.574,0.544-1.413,0.825-1.831,1.526
		c-4.556,3.277-8.998,6.668-15.26,8.241c-2.567,0.585-4.964,1.344-8.24,1.221c-1.629,0-3.256,0-4.884,0
		C15.076,93.537,5.325,83.067,6.779,70.684c0.888-7.562,8.111-14.788,16.786-15.87c1.329-0.197,3.45,0.398,4.273-0.306
		c-3.426-6.081-7.948-11.624-6.714-21.669c0.576-4.69,3.826-9.249,6.714-12.208c7.014-7.184,16.32-12.856,28.384-13.734
		C97.438,3.897,129.573,21,148.392,39.859c-0.336,1.495-1.902,1.759-2.746,2.747c0-0.102,0-0.204,0-0.305
		c-3.48-3.309-7.486-6.554-11.902-9.767c-4.023-2.927-8.5-6.949-13.125-8.546c-6.408-2.213-14.502-1.933-21.059-1.526
		c-20.644,1.283-37.148,11.214-43.949,25.331c-0.833,0.223-0.614-0.606-1.22-0.609c4.998-16.361,26.916-26.132,47.61-27.163
		c3.926-0.195,7.184,0.583,10.683,0c-16.379-6.855-35.982-10.757-56.768-9.156c-11.178,0.861-30.934,11.149-31.131,24.721
		c-0.097,6.82,3.338,11.757,6.104,16.176c2.643,4.22,7.325,8.113,7.936,14.04c0.629,6.101-3.24,14.342-10.987,14.039
		c-9.664-0.378-12.802-15.105-1.221-16.175c-1.718,2.621-4.582,2.477-4.883,6.104c-0.57,6.835,8.246,7.561,11.292,3.968
		c3.756-4.43,1.466-13.037-2.137-14.649c-1.922-0.861-6.34-0.703-7.325-0.611c-6.249,0.584-12.218,7.25-12.818,12.819
		C9.093,86.625,26.771,94.53,43.097,88.083c1.604-2.771,3.352-5.397,4.273-8.851c-0.73-0.187-2.214,0.382-2.442-0.306
		c1.044-0.279,2.188-0.458,3.052-0.915c0.409-1.729,0.605-3.667,1.221-5.189c0.712,1.425,1.426,2.847,2.136,4.273
		c1.296,0.075,1.645-0.798,3.053-0.611c0-0.101,0-0.203,0-0.305c7.402-2.568,12.314-7.626,15.565-14.345
		c0.76-0.968,1.358-2.1,1.525-3.662C70.647,57.886,70.181,57.232,69.347,56.949z M49.51,79.533c0.031,2.68-2.424,4.49-2.137,6.409
		c3.001-2.085,6.27-3.904,8.545-6.714C53.727,79.275,51.26,79.047,49.51,79.533z"/>
	<path opacity="0.7" enable-background="new    " d="M71.789,74.345c1.258,1.286,2.478,2.607,3.662,3.968
		c-0.439-0.17-0.745-0.476-0.916-0.916c-2.797,5.24-7.253,8.821-13.429,10.682c-0.383,0.076-0.308,0.607,0,0.61
		c-1.108,0.085-2.685-1.989-3.968-2.746c-0.094-0.721-1.06-0.568-0.915-1.526c0.418-0.701,1.257-0.981,1.831-1.526
		c0.362,0.96,1.031,1.614,1.221,2.746C65.353,86.729,73.745,77.975,71.789,74.345z"/>
	<path opacity="0.7" fill="#FFFFFF" enable-background="new    " d="M58.055,82.89c3.766-4.271,7.675-8.4,11.598-12.513
		c0.414,1.621,1.53,2.539,2.136,3.967c1.956,3.631-6.436,12.385-12.514,11.292C59.084,84.505,58.417,83.851,58.055,82.89z"/>
	<path opacity="0.7" fill="#FFFFFF" enable-background="new    " d="M135.575,156.443c-5.683,6.221-11.453,12.352-12.207,23.501
		c-9.475,2.703-20.959,6.642-32.962,7.324c-17.879,1.018-33.658-3.844-44.253-10.986c5.606-2.082,11.714-6.377,9.766-14.04
		c-1.6,0.956-1.274,2.586-2.136,3.968c-2.318,3.719-6.979,5.227-11.292,7.02c-8.196-6.451-14.355-14.942-17.396-26.552
		c5.259,0.984,10.373,0.984,13.429-1.525c4.669-3.835,2.746-12.095,2.746-19.838c0-12.905,3.042-26.403,6.714-33.877
		c2.694-2.19,5.974-3.794,9.156-5.494c1.283,0.757,2.859,2.832,3.968,2.746c-0.308-0.003-0.383-0.534,0-0.61
		c6.176-1.861,10.632-5.442,13.429-10.682c0.17,0.44,0.477,0.745,0.916,0.916c-0.557,1.07-1.978,1.277-2.441,2.441
		c1.577-0.356,3.816-0.05,5.188-0.611c11.177,6.831,30.159,2.364,35.403-6.714c4.223,1.476,8.533,2.861,14.04,3.052
		c0.826,0.507,3.752,0.507,4.578,0c0.712,0,1.423,0,2.137,0c-0.022,1.142,0.128,2.11,0.609,2.748
		c0.022-13.737,6.629-28.532,14.956-36.319c1.896-1.775,4.711-4.088,7.019-4.883c2.628-0.907,9.72-1.238,10.072,2.137
		c0.341,3.261-3.635,3.998-6.41,4.883c7.099,9.52,13.933,22.153,14.647,38.456c0.697,15.792-3.158,26.957-9.154,36.318
		c0-0.204,0-0.406,0-0.609c0.506-0.526,0.506-3.137,0-3.663c-1.363-6.673-5.55-10.524-12.208-11.902
		c-0.726-0.507-3.547-0.507-4.272,0c-10.363,1.949-16.797,12.228-15.871,23.5c0.799,9.726,7.42,15.872,14.345,19.837
		c-3.282,2.314-6.476,4.717-9.767,7.021c0.223-1.443-0.436-2.007-0.916-2.747c-1.129-0.489-3.193-0.444-3.968,0.307
		c-0.856,0.91-0.856,3.667,0,4.577c0.354-0.05,0.543,0.066,0.61,0.305C134.558,156.443,135.067,156.443,135.575,156.443z
		 M161.821,98.151c4.133-9.328,6.086-26.753-0.305-35.099C163.485,73.634,162.554,87.977,161.821,98.151z M94.982,142.404
		c-7.671-0.374-13.795-1.307-18.312-4.577c-1.758-1.274-2.384-4.113-5.189-3.663c-0.616,4.143,4.196,6.533,8.241,8.24
		c9.237,3.899,23.812,4.203,32.351,0c2.946-1.45,7.521-3.499,5.799-7.324c-2.463,0.725-3.575,2.995-5.799,4.273
		c-2.845,1.634-7.386,3.099-11.598,3.051C98.646,142.404,96.814,142.404,94.982,142.404z M125.2,149.425
		c1.551,0.025,3.185,0.133,3.967-0.61c0.72-1.706,0.242-4.117-0.916-4.884C123.886,142.611,122.896,147.667,125.2,149.425z
		 M30.891,151.255c0.25,5.408,9.516,2.293,5.799-1.83C35.871,151.083,33.086,152.859,30.891,151.255z M120.62,158.581
		c0.756,1.068,3.518,1.282,4.578,0.305c0.996-1.052,0.623-3.435,0-4.578C122.331,152.373,119.005,155.147,120.62,158.581z"/>
	<path d="M239.648,161.021c7.206-6.629,15.017-12.655,27.468-14.04C258.052,151.752,248.84,156.377,239.648,161.021z"/>
	<path d="M302.214,164.074c0.933-1.001,1.613-2.253,3.052-2.747c6.489,3.175,9.169,10.162,13.124,15.87c-1.424,0-2.85,0-4.271,0
		C310.698,172.273,308.642,165.989,302.214,164.074z"/>
	<path opacity="0.7" fill="#FFFFFF" enable-background="new    " d="M229.577,159.19c2.864-1.509,6.451-2.298,9.461-3.662
		c-1.875,3.11-3.196,6.773-6.104,8.851c-3.878-0.445-8.078,1.495-11.899,3.356c-5.949,2.896-10.582,6.357-13.125,11.6
		c-1.41-4.389-2.002-9.597-3.357-14.04c2.335-0.749,3.954,1.423,7.02,0.915c0.33,0.505,2.723,0.505,3.053,0
		C220.68,164.944,225.831,162.77,229.577,159.19z"/>
	<path opacity="0.7" enable-background="new    " d="M194.784,132.333c15.035-20.869,29.168-43.968,44.562-65.008
		c2.071-2.834,3.812-6.889,7.629-7.935c0.579,0.742,1.138,1.508,0.916,3.052c0,1.526,0,3.051,0,4.578
		c-1.919,44.878-22.097,71.501-50.663,89.728c-0.847,0.58-1.673,1.176-2.441,1.833c0.973-1.293,0.275-0.562-0.914-0.306
		c0.313-0.804,0.363-1.874,0.304-3.053c30.438-17.376,49.896-45.737,51.58-91.865c-18.171,23.742-35.398,51.075-52.8,76.605
		c-0.414-0.094-0.254-0.765-0.307-1.221C193.227,136.473,194.056,134.452,194.784,132.333z"/>
	<path opacity="0.5" enable-background="new    " d="M177.083,199.172c-7.25,4.193-18.963,9.719-28.69,7.02
		c-6.08-1.688-10.25-5.881-14.649-9.768c2.385-15.549,7.842-25.759,18.006-33.266c10.006-7.389,23.856-9.44,33.267-18.007
		c-1.901,5.729-5.887,12.019-7.019,19.532c-10-7.382-25.228,2.266-25.027,14.346c0.082,4.966,3.271,9.954,8.546,10.683
		c6.521,0.899,12.702-1.293,14.039-6.41c-3.947,2.896-12.269,6.297-16.785,1.525c-6.458-6.82,2.847-19.839,12.208-18.923
		c3.096,0.304,6.984,2.814,9.155,4.885c3.212,3.063,4.716,8.411,4.883,13.123C182.528,189.155,179.663,194.021,177.083,199.172z"/>
	<path d="M151.446,210.463c-14.877-3.537-25.076-11.75-27.773-27.466c-0.083-1.037,0.236-2.477-0.305-3.053
		c0.752-11.149,6.523-17.28,12.207-23.501c0.939-0.79,2.131-1.327,2.748-2.441c3.291-2.304,6.483-4.706,9.767-7.021
		c-6.925-3.965-13.545-10.111-14.345-19.837c-0.926-11.272,5.508-21.551,15.871-23.5c1.424,0,2.849,0,4.272,0
		c6.658,1.378,10.845,5.229,12.208,11.902c0,1.221,0,2.441,0,3.663c0,0.203,0,0.405,0,0.609
		c-0.922,10.359-16.471,14.339-18.007,2.137c0.646-0.576,2.046,1.693,2.745,2.441c1.726,1.84,2.281,3.09,5.494,2.747
		c7.261-0.775,7.254-13.556,2.138-17.702c-9.362-7.583-19.823,4.192-20.753,12.513c-1.286,11.501,5.132,17.649,12.208,21.669
		c1.837,1.045,4.233,1.816,4.272,3.356c0.049,2.004-6.307,4.809-8.546,6.41c-7.823,5.59-18.051,13.925-18.313,26.553
		c-0.119,5.839,1.423,9.625,4.58,13.732c2.73-14.906,9.347-26.844,21.363-34.486c10.713-6.812,29.379-9.668,35.403-21.058
		c3.974-7.513,6.038-19.483,5.492-29.301c-0.757-13.671-6.392-25.442-15.259-31.435c-0.346-1.587-0.838-3.028-0.916-4.883
		c17.977,7.19,24.728,37.074,16.785,59.819c-0.729,2.119-1.558,4.141-2.137,6.409c-3.783,8.933-9.219,16.214-10.683,27.468
		c0.122,2.32,2.159,2.723,3.052,4.272c3.266,3.703,3.77,9.988,0,13.43c-0.167-4.712-1.671-10.059-4.883-13.123
		c-2.17-2.07-6.061-4.581-9.155-4.885c-9.362-0.916-18.666,12.102-12.208,18.923c4.516,4.771,12.838,1.371,16.785-1.524
		c-1.337,5.116-7.518,7.31-14.039,6.408c-5.273-0.729-8.464-5.716-8.546-10.682c-0.199-12.08,15.028-21.728,25.026-14.346
		c1.133-7.514,5.115-13.804,7.02-19.532c-9.41,8.566-23.261,10.618-33.266,18.007c-10.166,7.507-15.622,17.717-18.006,33.267
		c4.398,3.887,8.568,8.08,14.648,9.768c9.729,2.697,21.439-2.826,28.689-7.021c-0.588,3.992-7.125,2.031-6.104,7.631
		c-4.595,1.611-9.131,3.281-14.956,3.662C154.497,210.463,152.972,210.463,151.446,210.463z"/>
	<path d="M177.387,103.033c0.62,1.341-0.589,3.474-1.222,4.578C176.374,105.888,177.137,104.715,177.387,103.033z"/>
	<path fill="#FFFFFF" stroke="#000000" stroke-width="2" stroke-miterlimit="10" d="M56.223,84.416
		c-0.145,0.958,0.821,0.806,0.915,1.526c-3.182,1.7-6.461,3.304-9.156,5.494c-2.994,1.38-5.365,3.382-8.24,4.883
		c0.249-1.379,0.883-2.373,1.221-3.662C47.225,91.084,51.667,87.693,56.223,84.416z"/>
	<path opacity="0.7" enable-background="new    " d="M123.673,182.997c-0.682-0.132-0.123-1.505-0.305-2.137
		c-6.459,3.408-14.102,8.279-24.111,9.156c-3.928,34.101,2.596,64.417,25.943,74.162c1.186-4.203,1.41-9.371,3.051-13.123
		c1.879,21.6,0.775,50.982-3.051,71.42c-2.261,12.059-8.321,22.826-12.515,34.182c-1.278,3.463-3.515,9.812-2.747,12.514
		c0.871,3.062,7.137,3.496,10.376,3.969c9.019,1.312,16.832,1.676,27.163,0.914c4.648-0.342,9.844-0.371,12.208-1.83
		c3.757-2.314,3.863-10.139,4.272-17.094c0.459-7.76,0.74-15.969,1.222-23.191c0.958-14.4-1.485-28.369-3.356-41.51
		c-1.91-13.414-2.722-26.621-6.104-38.453c3.716,4.016,6.385,11.723,7.324,19.531c13.959-0.184,26.271-2.012,38.455-3.969
		c-5.612-7.51-12.486-16.402-13.428-29.604c3.252,10.014,8.627,17.754,14.648,25.332c5.87,7.385,13.378,13.414,19.229,20.756
		c4.393,5.508,8.602,13.135,11.291,20.752c8.01,22.67,0.961,49.094-7.629,66.533c1.661,3.771,6.887,3.91,11.293,4.271
		c9.377,0.771,19.453,0.172,28.993-0.914c8.478-0.967,14.019-2.512,14.039-12.514c0.017-7.521-1.888-16.379-3.052-25.027
		c-2.217-16.449-6.234-31.033-11.903-44.254c-2.946-6.873-6.319-13.996-9.461-18.617c-2.931-4.311-9.276-6.24-14.039-8.24
		c0.054-2.896-0.19-6.092,0.306-8.545c-19.028-2.029-30.768-11.352-38.762-24.416c1.116,0.895,2.254-0.23,3.053-0.611
		c7.985,12.668,20.014,21.293,39.678,22.281c-9.628-9.396-22.342-18.354-33.878-26.857c1.094-0.449,2.265-2.264,0.916-3.357
		c10.471,8.248,21.442,15.994,31.436,24.721c0.857-2.805,1.435-5.893,1.526-9.461c-12.61-4.582-23.279-11.105-31.741-19.838
		c1.521,0.199,1.799-0.846,2.747-1.221c12.034,12.021,31.232,23.166,56.462,18.006c5.904-1.205,12.099-2.736,15.871-6.408
		c-20.612-6.855-43.771-12.791-65.312-17.701c1.543-0.836,1.902-2.637,0.305-3.662c6.541,2.412,14.033,3.873,21.06,5.799
		c-0.14-2.506-1.165-4.125-1.524-6.408c-6.889-1.457-14.135-2.551-20.45-4.58c2.521,0.484,0.907-3.162,1.832-4.27
		c0,0.607,0,1.219,0,1.828c14.243,3.352,29.396,6.646,46.394,5.799c21.889-1.09,36.621-12.041,44.252-26.857
		c-17.226,1.006-32.064,8.43-49.441,9.768c-11.25,0.867-23.527,0.973-36.93,1.221c0.746-0.535,0.723-1.84,0.307-2.746
		c-3.084-0.375-6.357-0.561-9.768-0.611c-0.123-0.895-1.791-0.242-2.136-0.916c3.738,0.181,6.908-0.211,9.767-0.914
		c2.199,2.071,6.112,2.433,10.684,2.136c2.904,0.261,5.186-0.103,6.714-1.222c-1.019,1.562,1.582,0.69,2.745,0.916
		c1.492-0.035,3.219,0.164,4.273-0.305c2.16,0.128,3.957-0.111,5.799-0.305c1.32,0,2.646,0,3.969,0
		c19.34-1.516,34.294-7.416,52.494-10.072c1.424,0,2.849,0,4.271,0c0.56,0.46,0.72,1.316,1.224,1.832
		c-0.986,1.354-1.356,3.323-2.14,4.883c-10.979,17.306-29.557,28.63-59.514,25.943c-1.372,0.193-2.606-0.834-3.663,0
		c-2.046-0.602-4.615-0.678-7.021-0.916c0.646,2.104,1.213,4.281,1.526,6.713c1.481,0.453,2.872,0.996,4.579,1.221
		c0.887,0.539,2.152,0.695,3.355,0.916c5.584,1.641,11.394,3.055,16.787,4.883c1.338,0.189,2.26,0.793,3.66,0.916
		c3.227,1.82,14.694,3.49,14.955,7.021c0.297,4.008-6.896,4.992-10.07,6.715c-1.136,0.188-1.918,0.727-3.053,0.914
		c-5.646,1.576-11.566,2.879-18.922,2.748c-1.222,0-2.441,0-3.664,0c0,0.102,0,0.203,0,0.305c-1.876-0.562-4.67-0.213-6.408-0.916
		c0.149,3.439-3.088,7.154-2.746,10.988c0.149,1.695,2.156,2.6,1.832,4.271c-0.312,1.59-2.017,2.037-3.664,1.832
		c-0.312,1.922-1.381,3.096-1.524,5.188c4.655,2.297,11.69,4.906,14.956,9.463c3.703,5.17,6.658,13.533,9.766,21.061
		c5.85,14.174,9.654,30.416,13.123,47.914c2.09,10.545,6.949,31.488-1.831,36.318c-4.532,2.494-12.396,1.598-18.312,2.137
		c-5.088,0-10.174,0-15.262,0c-10.176-0.402-20.949-0.209-26.554-5.188c-0.135-2.172,1.168-2.902,1.525-4.578
		c-4.599-1.795-16.62-0.266-18.007-5.494c-0.338-1.275,2.44-7.584,3.356-9.766c3.707-8.842,8.979-20.039,9.767-30.826
		c1.494-20.521-5.918-35.791-14.039-47c-0.912-1.262-2.676-4.129-4.575-4.578c-2.164-0.514-5.449,0.877-8.242,1.221
		c-8.621,1.059-15.896,1.941-25.636,2.139c1.473,12.561,4.197,27.17,4.885,42.727c0.304,6.949,0.409,13.99,0.609,21.061
		c0,2.137,0,4.271,0,6.408c-0.674,11.129,0.098,23.701-4.273,31.131c-3.702,1.486-8.604,1.773-13.734,1.83
		c-1.228,0.197-3.244-0.396-3.968,0.309c-2.948,0-5.899,0-8.85,0c-0.925-0.705-3.149-0.107-4.579-0.309
		c-11.561-0.646-24.023-0.391-31.436-5.188c0.016-3.953,1.078-6.855,2.137-9.768c-4.059-0.824-8.672-1.098-10.682-3.969
		c3.014-18.799,14.926-32.621,18.922-50.969c2.937-13.488,2.08-27.84,3.662-43.645c-1.285-1.973-3.287-2.568-4.885-3.969
		c-16.355-14.346-18.762-40.279-16.48-70.195c-4.45,0.102-12.441,0.629-18.312,0.305c-30.868-1.709-53.853-21.333-57.988-50.053
		c1.137-0.68,2.789,1.102,4.578,1.526c5.267,1.251,11.584-0.633,13.429-4.272c-0.753-14.646-1.389-30.802,2.747-42.118
		c2.875-1.5,5.247-3.502,8.24-4.883c-3.672,7.474-6.714,20.972-6.714,33.877c0,7.743,1.923,16.003-2.746,19.838
		c-3.057,2.51-8.17,2.51-13.429,1.525c3.041,11.609,9.2,20.101,17.396,26.553c4.313-1.794,8.974-3.301,11.292-7.021
		c0.862-1.382,0.536-3.012,2.136-3.968c1.948,7.663-4.16,11.958-9.766,14.04c10.595,7.143,26.375,12.004,44.253,10.986
		c12.002-0.684,23.488-4.62,32.961-7.324C123.909,180.52,123.59,181.959,123.673,182.997z"/>
	<path d="M254.297,209.854c1.057-0.834,2.291,0.193,3.663,0c-0.19,2.859-0.723,5.383-1.221,7.936
		c-1.203-0.221-2.472-0.379-3.356-0.916C253.48,214.326,254.17,212.371,254.297,209.854z"/>
	<path d="M100.477,142.404c4.212,0.048,8.753-1.417,11.599-3.051c2.223-1.278,3.334-3.549,5.799-4.273
		c1.722,3.825-2.854,5.874-5.799,7.324c-8.539,4.203-23.115,3.899-32.352,0c-4.045-1.707-8.857-4.098-8.241-8.24
		c2.805-0.45,3.431,2.389,5.189,3.663c4.516,3.271,10.641,4.203,18.312,4.577C96.112,142.911,99.349,142.911,100.477,142.404z"/>
	<path opacity="0.7" fill="#FFFFFF" enable-background="new    " d="M216.758,218.703c2.153-2.219,4.633-4.117,7.021-6.104
		c21.543,4.908,44.7,10.844,65.312,17.701c-3.774,3.672-9.967,5.203-15.871,6.408C247.991,241.869,228.792,230.727,216.758,218.703z
		"/>
	<path opacity="0.7" fill="#FFFFFF" enable-background="new    " d="M206.077,232.438c1.715-1.744,3.838-3.076,5.799-4.578
		c11.535,8.508,24.25,17.461,33.877,26.857C226.088,253.729,214.062,245.104,206.077,232.438z"/>
	<path fill="#FFFFFF" stroke="#000000" stroke-width="2" stroke-miterlimit="10" d="M193.868,158.275
		c-2.537,4.074-5.569,7.653-11.901,7.935c1.464-11.254,6.897-18.535,10.683-27.468c0.053,0.456-0.107,1.127,0.307,1.221
		c0.512,4.981,0.977,10.013,1.22,15.26C194.232,156.401,194.184,157.471,193.868,158.275z"/>
	<path opacity="0.7" fill="#FFFFFF" enable-background="new    " d="M181.659,200.391c-0.58,1.057-2.783,3.783-2.746,1.832
		C180.098,201.881,180.476,200.732,181.659,200.391z"/>
	<path opacity="0.7" fill="#FFFFFF" enable-background="new    " d="M190.815,189.406c-1.275,1.573-2.367,3.328-3.967,4.579
		c0.245-1.282,1.073-1.98,1.223-3.358C188.819,190.051,189.679,189.592,190.815,189.406z"/>
	<path opacity="0.7" enable-background="new    " d="M194.172,181.469c0.511,0.59,2.815,0.392,3.358,0
		c-2.254,2.631-4.369,5.398-6.717,7.938c-1.137,0.186-1.997,0.645-2.744,1.221c0.729-1,0.36-3.097,0.916-4.273
		c1.627-0.305,2.93-0.936,4.271-1.525C193.661,183.805,193.633,182.354,194.172,181.469z"/>
	<path opacity="0.7" enable-background="new    " d="M199.362,186.963c-1.56,0.068-2.89,0.366-3.662,1.221
		c0.938-1.399,2.351-2.33,3.054-3.967C199.346,184.742,199.409,185.797,199.362,186.963z"/>
	<path opacity="0.7" fill="#FFFFFF" enable-background="new    " d="M199.362,186.963c-0.316,1.202,0.411,2.807,0,4.272
		c-0.721,2.561-6.404,5.879-8.547,7.629c-3.447,2.82-6.014,5.254-8.851,6.41c4.021-6.252,9.25-11.303,13.733-17.093
		C196.473,187.33,197.803,187.032,199.362,186.963z"/>
	<path opacity="0.7" fill="#FFFFFF" enable-background="new    " d="M195.089,208.021c-0.245,1.279-1.072,1.979-1.221,3.357
		c-2.35,0.5-5.17,0.527-7.326,1.221C187.663,210.564,192.366,209.471,195.089,208.021z"/>
	<path opacity="0.7" fill="#FFFFFF" enable-background="new    " d="M69.957,61.831c-3.251,6.719-8.163,11.777-15.565,14.345
		c-0.777-1.766-1.835-3.252-2.441-5.189c5.224-2.914,8.002-8.274,9.155-15.259C64.012,57.808,66.918,59.885,69.957,61.831z"/>
	<path fill="#FFFFFF" stroke="#000000" stroke-width="2" stroke-miterlimit="10" d="M75.451,78.312
		c1.094,0.432,1.732,1.321,2.747,1.831c-1.372,0.561-3.611,0.255-5.188,0.611C73.473,79.59,74.894,79.382,75.451,78.312z"/>
	<path opacity="0.5" enable-background="new    " d="M166.096,119.819c0.103,1.525,0.752,2.505,0.61,4.273
		c4.109-4.537,7.012-10.281,9.459-16.481c0.633-1.104,1.842-3.236,1.222-4.578c2.06-6.931,2.851-17.212,1.526-25.637
		c8.867,5.993,14.502,17.764,15.259,31.435c0.546,9.817-1.519,21.788-5.492,29.301c-6.022,11.39-24.69,14.246-35.403,21.058
		c-12.017,7.643-18.633,19.58-21.363,34.486c-3.157-4.107-4.699-7.894-4.58-13.732c0.263-12.628,10.49-20.963,18.313-26.553
		c2.24-1.602,8.597-4.406,8.546-6.41c-0.039-1.54-2.436-2.312-4.273-3.356c-7.075-4.02-13.493-10.168-12.207-21.669
		c0.93-8.321,11.391-20.097,20.753-12.513c5.118,4.146,5.124,16.926-2.138,17.702c-3.213,0.343-3.769-0.907-5.494-2.747
		c-0.699-0.748-2.1-3.018-2.745-2.441C149.624,134.158,165.174,130.179,166.096,119.819z"/>
	<path opacity="0.7" fill="#FFFFFF" enable-background="new    " d="M194.172,155.222c-0.243-5.247-0.708-10.278-1.22-15.26
		c17.399-25.531,34.629-52.863,52.799-76.605C244.066,109.485,224.61,137.846,194.172,155.222z"/>
	<path opacity="0.7" fill="#FFFFFF" enable-background="new    " d="M230.493,155.528c-0.158-5.742-1.016-10.788-2.138-15.565
		c29.979-25.466,58.904-53.612,89.423-77.521C313.575,118.363,274.036,138.948,230.493,155.528z"/>
	<path opacity="0.7" fill="#FFFFFF" enable-background="new    " d="M230.493,181.469c1.013-4.479,2.559-8.429,3.052-13.429
		c28.384-15.463,58.192-31.129,89.118-43.032C312.813,164.746,278.389,180.866,230.493,181.469z"/>
	<path opacity="0.7" fill="#FFFFFF" enable-background="new    " d="M123.673,182.997c2.697,15.716,12.896,23.929,27.773,27.466
		c0.825,0.508,3.752,0.508,4.577,0c5.824-0.381,10.361-2.051,14.956-3.662c0.21,3.344,4.053,3.482,5.493,5.189
		c2.78,3.297,2.786,9.828,1.526,13.428c-1.195,3.414-4.325,4.604-4.273,7.631c0.084,4.752,8.805,5.836,13.734,3.967
		c2.332-0.883,4.459-5.371,6.104-7.936c2.153-3.354,3.615-6.34,5.799-8.543c0.108,1.791-1.029,2.744-0.914,4.576
		c0.197,3.191,3.539,5.641,4.576,7.936c7.994,13.066,19.731,22.387,38.762,24.416c-0.496,2.453-0.252,5.648-0.306,8.545
		c4.763,2,11.108,3.932,14.039,8.242c3.142,4.621,6.515,11.742,9.461,18.615c5.669,13.221,9.688,27.807,11.903,44.254
		c1.164,8.65,3.068,17.508,3.052,25.027c-0.021,10.004-5.562,11.549-14.039,12.514c-9.54,1.088-19.616,1.688-28.993,0.916
		c-4.406-0.363-9.632-0.502-11.293-4.271c8.59-17.441,15.639-43.863,7.629-66.533c-2.689-7.619-6.898-15.244-11.291-20.754
		c-5.851-7.34-13.356-13.369-19.229-20.756c-6.021-7.578-11.396-15.316-14.648-25.332c0.939,13.201,7.813,22.096,13.428,29.605
		c-12.185,1.955-24.494,3.785-38.455,3.967c-0.938-7.809-3.606-15.518-7.323-19.531c3.382,11.832,4.192,25.041,6.103,38.453
		c1.873,13.143,4.315,27.109,3.357,41.512c-0.48,7.225-0.762,15.432-1.221,23.191c-0.41,6.953-0.518,14.775-4.273,17.094
		c-2.365,1.459-7.561,1.486-12.208,1.828c-10.331,0.762-18.144,0.396-27.163-0.912c-3.24-0.475-9.506-0.904-10.376-3.971
		c-0.769-2.699,1.468-9.051,2.747-12.512c4.193-11.355,10.254-22.125,12.514-34.184c3.828-20.438,4.931-49.818,3.051-71.418
		c-1.639,3.752-1.864,8.92-3.051,13.123c-23.347-9.744-29.871-40.062-25.942-74.164c10.01-0.877,17.651-5.746,24.11-9.155
		C123.55,181.492,122.991,182.865,123.673,182.997z"/>
	<path opacity="0.7" fill="#FFFFFF" enable-background="new    " d="M211.569,186.352c2.09,0.148,3.651,0.826,6.105,0.609
		c0.344,0.674,2.013,0.021,2.135,0.916c-4.865-0.017-7.059,3.689-11.597,3.053c0-1.627,0-3.254,0-4.883
		C209.659,185.823,210.311,186.391,211.569,186.352z"/>
	<path d="M188.985,186.352c-0.554,1.178-0.186,3.273-0.914,4.273c-0.147,1.379-0.978,2.076-1.223,3.357
		c-1.514,2.354-3.395,4.338-5.188,6.408c-1.187,0.342-1.562,1.488-2.748,1.83c2.998-6.564,6.688-12.438,9.768-18.921
		C189.374,183.723,188.794,185.426,188.985,186.352z"/>
	<path opacity="0.7" fill="#FFFFFF" enable-background="new    " d="M199.058,196.119c-0.562,2.795-1.302,5.414-2.137,7.936
		c-4.223,1.283-8.014,4.588-12.209,4.883c0.435-3.215,4.275-4.709,6.715-6.715C194.001,200.105,196.271,197.557,199.058,196.119z"/>
	<path opacity="0.7" fill="#FFFFFF" enable-background="new    " d="M224.997,199.477c-0.235-4.406,1.603-6.742,4.272-8.241
		c13.4-0.248,25.679-0.354,36.931-1.22c17.375-1.34,32.217-8.764,49.44-9.769c-7.631,14.815-22.364,25.768-44.253,26.856
		c-16.997,0.848-32.146-2.445-46.393-5.797C224.997,200.697,224.997,200.088,224.997,199.477z"/>
	<path fill="#FFFFFF" stroke="#000000" stroke-width="2" stroke-miterlimit="10" d="M177.083,199.172
		c2.58-5.148,5.445-10.017,7.934-15.26c3.768-3.44,3.264-9.728,0-13.429c3.074-2.217,5.074-5.507,9.768-6.104
		c-0.567-2.047-1.302-4.082,0-5.798c0.771-0.657,1.597-1.253,2.441-1.833c2.775-0.435,3.973,0.709,5.188,1.833
		c0.277,1.145,0.69,2.157,0.916,3.356c0.771-0.959-0.104-3.562,0.609-4.578c1.451-4.545,6.295-8.521,9.768-12.208
		c3.537-3.756,7.509-7.892,12.514-8.851c0.075,0.331,0.605,0.208,0.609,0.609c0.689,0.838,1.107,1.945,1.526,3.053
		c1.122,4.777,1.978,9.823,2.136,15.565c0.164,1.689-0.41,2.642-0.916,3.662c-3.744,3.58-8.896,5.754-14.953,7.02
		c-1.019,0-2.034,0-3.053,0c-3.065,0.508-4.686-1.664-7.021-0.915c1.356,4.443,1.946,9.651,3.358,14.04
		c2.543-5.241,7.176-8.702,13.123-11.6c3.822-1.861,8.022-3.802,11.9-3.356c0.521,0.905,0.775,2.072,0.609,3.662
		c-0.492,5-2.039,8.948-3.053,13.43c-0.654,0.973-0.845,2.41-1.523,3.356c-0.562,0.354-1.033,0.798-1.526,1.222
		c-2.856,0.702-6.026,1.094-9.766,0.914c-2.454,0.217-4.019-0.461-6.105-0.609c-1.381-1.159-2.472-2.614-3.659-3.967
		c0.109,1.209-0.281,2.924,0.305,3.662c0,1.629,0,3.256,0,4.883c4.537,0.638,6.729-3.068,11.597-3.053
		c3.409,0.051,6.683,0.236,9.767,0.611c0.416,0.906,0.441,2.211-0.305,2.746c-2.672,1.499-4.51,3.833-4.273,8.242
		c-0.924,1.107,0.688,4.754-1.832,4.271c-3.74-0.639-6.797-0.816-9.153-2.441c-2.828-1.947-2.763-5.584-5.493-7.631
		c-1.097,3.586-1.26,8.102-2.747,11.295c3.519,3.004,15.701-2.088,18.312,3.967c1.601,1.025,1.238,2.826-0.305,3.662
		c-2.388,1.986-4.867,3.885-7.021,6.104c-0.948,0.377-1.226,1.42-2.747,1.223c-2.322-1.799-5.461-2.785-6.715-5.799
		c-0.782-1.887,0.279-4.754-1.83-6.105c-2.512,2.475-3.098,6.873-5.188,9.768c0.604,0.615,1.441,0.998,1.829,1.832
		c4.574-0.559,8.771,1.771,10.683,4.883c1.35,1.096,0.179,2.908-0.914,3.357c-1.961,1.5-4.084,2.832-5.799,4.576
		c-0.801,0.381-1.938,1.506-3.055,0.611c-1.035-2.295-4.379-4.744-4.576-7.936c-0.113-1.832,1.022-2.787,0.916-4.578
		c-2.186,2.205-3.646,5.191-5.801,8.545c-1.646,2.561-3.771,7.053-6.104,7.936c-4.932,1.869-13.649,0.785-13.733-3.967
		c-0.052-3.025,3.078-4.217,4.272-7.631c1.261-3.602,1.254-10.131-1.525-13.428c-1.439-1.707-5.283-1.848-5.493-5.189
		C169.958,201.201,176.495,203.164,177.083,199.172z M197.53,181.469c0.276-0.537,0.686-0.943,1.224-1.221
		c-0.943-3.533-1.153-7.8-2.443-10.987c-1.188,3.594-1.442,8.12-2.137,12.208c-0.539,0.885-0.511,2.338-0.914,3.357
		c-1.345,0.591-2.646,1.223-4.271,1.525c-0.191-0.928,0.389-2.629-0.308-3.051c-3.08,6.481-6.771,12.355-9.769,18.921
		c-0.034,1.951,2.166-0.775,2.748-1.832c1.795-2.068,3.677-4.055,5.188-6.406c1.601-1.25,2.69-3.005,3.967-4.579
		C193.161,186.868,195.276,184.098,197.53,181.469z M199.362,186.963c0.049-1.166-0.017-2.222-0.608-2.746
		c-0.703,1.637-2.114,2.566-3.054,3.967c-4.483,5.791-9.713,10.839-13.733,17.093c2.837-1.158,5.401-3.592,8.851-6.41
		c2.143-1.752,7.826-5.068,8.547-7.63C199.773,189.768,199.044,188.166,199.362,186.963z M191.427,202.223
		c-2.439,2.004-6.28,3.5-6.715,6.715c4.195-0.297,7.986-3.602,12.209-4.883c0.835-2.521,1.574-5.141,2.137-7.936
		C196.271,197.557,194.001,200.105,191.427,202.223z M186.542,212.6c2.156-0.693,4.979-0.721,7.326-1.221
		c0.146-1.379,0.976-2.078,1.221-3.357C192.366,209.471,187.663,210.564,186.542,212.6z M187.153,215.346
		c-0.177,0.99,0.209,1.422,0.307,2.139c1.019,0,2.035,0,3.053,0c0.009-1.227,1.996-2.059,1.221-3.055
		C190.573,215.104,188.374,214.734,187.153,215.346z M187.765,221.758c0.273-0.541,0.736-0.893,0.915-1.527
		C187.571,219.762,186.989,221.348,187.765,221.758z"/>
	<path opacity="0.7" fill="#FFFFFF" enable-background="new    " d="M212.79,224.504c-1.91-3.111-6.107-5.441-10.684-4.883
		c-0.388-0.834-1.225-1.219-1.83-1.832c2.092-2.895,2.678-7.293,5.188-9.768c2.107,1.352,1.048,4.219,1.83,6.104
		c1.254,3.016,4.393,4,6.715,5.799c8.462,8.732,19.131,15.256,31.74,19.838c-0.094,3.568-0.668,6.656-1.525,9.461
		C234.235,240.498,223.261,232.752,212.79,224.504z"/>
	<path opacity="0.7" fill="#FFFFFF" enable-background="new    " d="M188.68,220.229c-0.179,0.637-0.642,0.988-0.915,1.527
		C186.989,221.348,187.571,219.762,188.68,220.229z"/>
	<path d="M277.188,223.588c-1.401-0.123-2.323-0.727-3.661-0.916C273.469,218.699,278.27,221.562,277.188,223.588z"/>
	<path opacity="0.7" enable-background="new    " d="M202.413,158.581c0.393-0.523,0.631-1.2,1.524-1.222
		c-0.714,1.016,0.16,3.619-0.608,4.578C203.104,160.738,202.691,159.725,202.413,158.581z"/>
	<path opacity="0.7" fill="#FFFFFF" enable-background="new    " d="M194.172,181.469c0.692-4.088,0.95-8.613,2.137-12.208
		c1.29,3.188,1.5,7.454,2.442,10.987c-0.537,0.276-0.944,0.684-1.221,1.221C196.989,181.86,194.683,182.057,194.172,181.469z"/>
	<path opacity="0.7" enable-background="new    " d="M208.213,186.049c-0.585-0.738-0.193-2.453-0.306-3.664
		c1.188,1.354,2.279,2.809,3.662,3.969C210.311,186.391,209.659,185.823,208.213,186.049z"/>
	<path opacity="0.7" fill="#FFFFFF" enable-background="new    " d="M224.081,208.938c-2.609-6.055-14.793-0.963-18.312-3.967
		c1.487-3.193,1.65-7.709,2.747-11.295c2.729,2.047,2.665,5.684,5.493,7.631c2.357,1.625,5.413,1.803,9.154,2.441
		c6.314,2.029,13.562,3.123,20.449,4.578c0.36,2.285,1.387,3.902,1.525,6.408C238.116,212.811,230.622,211.35,224.081,208.938z"/>
	<path opacity="0.7" fill="#FFFFFF" enable-background="new    " d="M191.731,214.43c0.775,0.996-1.212,1.828-1.221,3.055
		c-1.018,0-2.034,0-3.053,0c-0.096-0.717-0.481-1.146-0.305-2.139C188.374,214.734,190.573,215.104,191.731,214.43z"/>
	<path d="M242.396,183.912c0.983-0.44,2.561-0.289,3.967-0.306c2.977,0.179,4.396,1.91,5.494,3.968
		c-1.056,0.469-2.781,0.271-4.273,0.306c-0.328-0.893-1.451-0.988-2.744-0.916c-1.528,1.118-3.811,1.48-6.715,1.221
		C239.132,186.346,240.853,185.219,242.396,183.912z"/>
</g>
</svg>
