<?xml version="1.0" encoding="utf-8"?>
<!-- Generator: Adobe Illustrator 16.0.4, SVG Export Plug-In . SVG Version: 6.00 Build 0)  -->
<!DOCTYPE svg PUBLIC "-//W3C//DTD SVG 1.1//EN" "http://www.w3.org/Graphics/SVG/1.1/DTD/svg11.dtd">
<svg version="1.1" id="Layer_1" xmlns="http://www.w3.org/2000/svg" xmlns:xlink="http://www.w3.org/1999/xlink" x="0px" y="0px"
	 width="100px" height="100px" viewBox="0 0 100 100" enable-background="new 0 0 100 100" xml:space="preserve">
<g>
	<line fill="none" stroke="#4A494A" stroke-width="5" stroke-miterlimit="10" x1="108.391" y1="4.284" x2="77.188" y2="28.513"/>
	<line fill="none" stroke="#4A494A" stroke-width="5" stroke-miterlimit="10" x1="22.813" y1="71.486" x2="-8.39" y2="95.717"/>
	<g>
		<path fill="#C9B89B" stroke="#33291F" stroke-miterlimit="10" d="M55.928,57.613c-8.795,6.828-6.333,9.998-14.359,16.23
			c-5.835,4.531-14.229,3.471-18.755-2.357l0.512,0.66c-4.526-5.828-3.473-14.225,2.361-18.756
			c8.025-6.231,10.486-3.062,19.281-9.891c8.801-6.834,6.34-10.003,14.366-16.234c5.832-4.528,14.229-3.471,18.756,2.358
			l-0.514-0.66c4.527,5.829,3.471,14.226-2.359,18.753C67.189,53.949,64.729,50.778,55.928,57.613z"/>
		<path fill="#EE6623" d="M25.687,53.391c-1.161,0.902-2.072,1.984-2.849,3.139l14.984,19.297c1.313-0.463,2.584-1.08,3.746-1.982
			c1.673-1.299,2.881-2.465,3.845-3.562l-15.32-19.732C28.79,51.211,27.361,52.092,25.687,53.391z"/>
		<path fill="#EE6623" d="M35.624,48.485l13.16,16.947c1.309-2.107,2.861-4.322,6.34-7.158L44.131,44.119
			C40.519,46.784,37.989,47.739,35.624,48.485z"/>
		<path fill="#5A2D0F" d="M48.428,40.449L59.742,55.02c3.664-2.133,6.156-2.436,9.109-3.584L54.154,32.509
			C52.311,35.086,51.4,37.424,48.428,40.449z"/>
		<path fill="#9A7D60" d="M59.334,27.265c-0.471,0.364-0.891,0.712-1.291,1.056l15.83,20.387c0.432-0.304,0.873-0.627,1.344-0.991
			c1.1-0.853,1.969-1.877,2.725-2.963L62.879,25.357C61.641,25.82,60.434,26.411,59.334,27.265z"/>
		<path fill="none" stroke="#33291F" stroke-miterlimit="10" d="M55.928,57.613c-8.795,6.828-6.333,9.998-14.359,16.23
			c-5.835,4.531-14.229,3.471-18.755-2.357l0.512,0.66c-4.526-5.828-3.473-14.225,2.361-18.756
			c8.025-6.231,10.486-3.062,19.281-9.891c8.801-6.834,6.34-10.003,14.366-16.234c5.832-4.528,14.229-3.471,18.756,2.358
			l-0.514-0.66c4.527,5.829,3.471,14.226-2.359,18.753C67.189,53.949,64.729,50.778,55.928,57.613z"/>
	</g>
</g>
</svg>
