<?xml version="1.0" encoding="UTF-8" standalone="no"?>
<!-- Created with Inkscape (http://www.inkscape.org/) -->

<svg
   xmlns:dc="http://purl.org/dc/elements/1.1/"
   xmlns:cc="http://creativecommons.org/ns#"
   xmlns:rdf="http://www.w3.org/1999/02/22-rdf-syntax-ns#"
   xmlns:svg="http://www.w3.org/2000/svg"
   xmlns="http://www.w3.org/2000/svg"
   xmlns:xlink="http://www.w3.org/1999/xlink"
   xmlns:sodipodi="http://sodipodi.sourceforge.net/DTD/sodipodi-0.dtd"
   xmlns:inkscape="http://www.inkscape.org/namespaces/inkscape"
   width="174.98485"
   height="162.40425"
   id="svg10400"
   version="1.1"
   inkscape:version="0.48.4 r9939"
   sodipodi:docname="button.svg"
   inkscape:export-filename="/home/adrian/Documents/EveBoardOne/button_logo.png"
   inkscape:export-xdpi="90"
   inkscape:export-ydpi="90">
  <defs
     id="defs10402">
    <linearGradient
       inkscape:collect="always"
       xlink:href="#linearGradient5149-0-4-2"
       id="linearGradient10494-7"
       gradientUnits="userSpaceOnUse"
       gradientTransform="matrix(0.73621054,0,0,0.73621054,121.0594,-43.514773)"
       x1="452.12442"
       y1="-187.57637"
       x2="553.86975"
       y2="-145.0058" />
    <linearGradient
       id="linearGradient5149-0-4-2">
      <stop
         style="stop-color:#c8b7b7;stop-opacity:1"
         offset="0"
         id="stop5151-5-2-1" />
      <stop
         id="stop5157-9-7-6"
         offset="1"
         style="stop-color:#ecebeb;stop-opacity:1;" />
    </linearGradient>
    <linearGradient
       inkscape:collect="always"
       xlink:href="#linearGradient5149-0-4-2-1"
       id="linearGradient5801"
       gradientUnits="userSpaceOnUse"
       gradientTransform="matrix(0.73621054,0,0,0.73621054,121.0594,-43.514773)"
       x1="452.12442"
       y1="-187.57637"
       x2="553.86975"
       y2="-145.0058" />
    <linearGradient
       id="linearGradient5149-0-4-2-1">
      <stop
         style="stop-color:#c8b7b7;stop-opacity:1"
         offset="0"
         id="stop5151-5-2-1-8" />
      <stop
         id="stop5157-9-7-6-2"
         offset="1"
         style="stop-color:#ecebeb;stop-opacity:1;" />
    </linearGradient>
  </defs>
  <sodipodi:namedview
     id="base"
     pagecolor="#ffffff"
     bordercolor="#666666"
     borderopacity="1.0"
     inkscape:pageopacity="0.0"
     inkscape:pageshadow="2"
     inkscape:zoom="0.35"
     inkscape:cx="87.492435"
     inkscape:cy="81.202127"
     inkscape:document-units="px"
     inkscape:current-layer="layer1"
     showgrid="false"
     fit-margin-top="0"
     fit-margin-left="0"
     fit-margin-right="0"
     fit-margin-bottom="0"
     inkscape:window-width="447"
     inkscape:window-height="416"
     inkscape:window-x="493"
     inkscape:window-y="210"
     inkscape:window-maximized="0" />
  <metadata
     id="metadata10405">
    <rdf:RDF>
      <cc:Work
         rdf:about="">
        <dc:format>image/svg+xml</dc:format>
        <dc:type
           rdf:resource="http://purl.org/dc/dcmitype/StillImage" />
        <dc:title />
      </cc:Work>
    </rdf:RDF>
  </metadata>
  <g
     inkscape:label="Layer 1"
     inkscape:groupmode="layer"
     id="layer1"
     transform="translate(-287.50757,-502.23419)">
    <rect
       y="502.23419"
       x="287.50757"
       height="162.40425"
       width="174.98485"
       id="rect5719-7-8-8"
       style="color:#000000;fill:#e6e6e6;fill-opacity:1;fill-rule:nonzero;stroke:none;stroke-width:2.03405142;marker:none;visibility:visible;display:inline;overflow:visible;enable-background:accumulate" />
    <g
       id="g5257-5-3-1"
       transform="matrix(3.4398253,0,0,3.4398253,-1551.3962,24.061966)">
      <path
         inkscape:connector-curvature="0"
         id="rect5023-6-4-2-6-6"
         d="m 560.00276,156.84201 0,24.66305 c 0.5588,-0.006 1.11319,-0.14386 1.54144,-0.39111 l 19.16448,-11.06617 c 0.44947,-0.2595 0.67708,-0.60281 0.66719,-0.94327 l 0.023,0 0,-8.7655 -8.25937,0 0,3.497 -11.48028,-6.6259 c -0.4398,-0.25392 -1.01349,-0.3681 -1.58745,-0.3681 -0.0225,0 -0.0464,-3.9e-4 -0.069,0 z"
         style="color:#000000;fill:#916f6f;fill-opacity:1;fill-rule:nonzero;stroke:none;stroke-width:1.39999998;marker:none;visibility:visible;display:inline;overflow:visible;enable-background:accumulate" />
      <path
         id="rect5023-6-4-7-8-5-1"
         d="m 560.05189,156.83456 0,24.66305 c -0.55881,-0.007 -1.11319,-0.14386 -1.54145,-0.39111 l -19.16448,-11.06617 c -0.44947,-0.2595 -0.67707,-0.60281 -0.66719,-0.94327 l -0.023,0 0,-8.7655 8.25936,0 0,3.497 11.48029,-6.6259 c 0.43979,-0.25392 1.01349,-0.3681 1.58745,-0.3681 0.0225,0 0.0464,-3.9e-4 0.069,0 z"
         style="color:#000000;fill:#241c1c;fill-opacity:1;fill-rule:nonzero;stroke:none;stroke-width:1.39999998;marker:none;visibility:visible;display:inline;overflow:visible;enable-background:accumulate"
         inkscape:connector-curvature="0" />
      <rect
         transform="matrix(0.8660254,0.5,-0.8660244,0.50000174,0,0)"
         ry="1.8333368"
         y="-175.62567"
         x="470.95895"
         height="25.666716"
         width="25.800415"
         id="rect5023-9-6-6"
         style="color:#000000;fill:url(#linearGradient5801);fill-opacity:1;fill-rule:nonzero;stroke:none;stroke-width:1.39999998;marker:none;visibility:visible;display:inline;overflow:visible;enable-background:accumulate" />
      <path
         inkscape:connector-curvature="0"
         id="path5027-6-6-8-3"
         d="m 560.00602,153.67391 c -3.37007,0 -6.26719,1.41634 -7.69405,3.47272 l -0.93576,0 0,2.64093 0.0208,0 c -0.004,0.07 -0.0208,0.13739 -0.0208,0.20795 0,3.49114 3.85405,6.32159 8.62981,6.32159 4.77577,0 8.65061,-2.83045 8.65061,-6.32159 0,-0.0705 -0.0177,-0.13796 -0.0208,-0.20795 l 0.0208,0 0,-2.64093 -0.93576,0 c -1.42685,-2.05638 -4.34477,-3.47272 -7.71485,-3.47272 z"
         style="color:#000000;fill:#241f1c;fill-opacity:1;fill-rule:nonzero;stroke:none;stroke-width:1.39999998;marker:none;visibility:visible;display:inline;overflow:visible;enable-background:accumulate" />
      <path
         transform="matrix(0.56879185,0,0,0.6520297,236.75008,47.904107)"
         d="m 583.54146,167.47012 c 0,4.71575 -6.80657,8.53862 -15.2029,8.53862 -8.39633,0 -15.2029,-3.82287 -15.2029,-8.53862 0,-4.71574 6.80657,-8.53861 15.2029,-8.53861 8.39633,0 15.2029,3.82287 15.2029,8.53861 z"
         sodipodi:ry="8.5386152"
         sodipodi:rx="15.2029"
         sodipodi:cy="167.47012"
         sodipodi:cx="568.33856"
         id="path5027-9-8-5"
         style="color:#000000;fill:#916f6f;fill-opacity:1;fill-rule:nonzero;stroke:none;stroke-width:1.39999998;marker:none;visibility:visible;display:inline;overflow:visible;enable-background:accumulate"
         sodipodi:type="arc" />
      <path
         transform="matrix(0.12504853,0,0,0.1433483,472.39355,136.42282)"
         d="m 583.54146,167.47012 c 0,4.71575 -6.80657,8.53862 -15.2029,8.53862 -8.39633,0 -15.2029,-3.82287 -15.2029,-8.53862 0,-4.71574 6.80657,-8.53861 15.2029,-8.53861 8.39633,0 15.2029,3.82287 15.2029,8.53861 z"
         sodipodi:ry="8.5386152"
         sodipodi:rx="15.2029"
         sodipodi:cy="167.47012"
         sodipodi:cx="568.33856"
         id="path5027-8-9-6-0"
         style="color:#000000;fill:#916f6f;fill-opacity:1;fill-rule:nonzero;stroke:none;stroke-width:1.39999998;marker:none;visibility:visible;display:inline;overflow:visible;enable-background:accumulate"
         sodipodi:type="arc" />
      <path
         transform="matrix(0.12504853,0,0,0.1433483,505.81782,136.42282)"
         d="m 583.54146,167.47012 c 0,4.71575 -6.80657,8.53862 -15.2029,8.53862 -8.39633,0 -15.2029,-3.82287 -15.2029,-8.53862 0,-4.71574 6.80657,-8.53861 15.2029,-8.53861 8.39633,0 15.2029,3.82287 15.2029,8.53861 z"
         sodipodi:ry="8.5386152"
         sodipodi:rx="15.2029"
         sodipodi:cy="167.47012"
         sodipodi:cx="568.33856"
         id="path5027-8-4-0-8-9"
         style="color:#000000;fill:#916f6f;fill-opacity:1;fill-rule:nonzero;stroke:none;stroke-width:1.39999998;marker:none;visibility:visible;display:inline;overflow:visible;enable-background:accumulate"
         sodipodi:type="arc" />
    </g>
  </g>
</svg>
