<?xml version="1.0" encoding="utf-8"?>
<!-- Generator: Adobe Illustrator 16.0.4, SVG Export Plug-In . SVG Version: 6.00 Build 0)  -->
<!DOCTYPE svg PUBLIC "-//W3C//DTD SVG 1.1//EN" "http://www.w3.org/Graphics/SVG/1.1/DTD/svg11.dtd">
<svg version="1.1" id="Layer_1" xmlns="http://www.w3.org/2000/svg" xmlns:xlink="http://www.w3.org/1999/xlink" x="0px" y="0px"
	 width="100px" height="100px" viewBox="0 0 100 100" enable-background="new 0 0 100 100" xml:space="preserve">
<g>
	
		<rect x="12.347" y="12.347" fill="#3C4C9F" stroke="#272C66" stroke-width="3" stroke-miterlimit="10" width="75.307" height="75.307"/>
	<circle fill="#3C4C9F" stroke="#272C66" stroke-width="3" stroke-miterlimit="10" cx="50" cy="50" r="28.035"/>
	<path fill="#FFFFFF" d="M16.646,72.603c0.408-0.168,0.833-0.357,1.279-0.576c0.441-0.219,0.875-0.459,1.299-0.723
		c0.421-0.26,0.825-0.531,1.213-0.82c0.388-0.289,0.734-0.594,1.048-0.92h2.195V84.2h-3.147V73.659
		c-0.421,0.285-0.896,0.541-1.415,0.771c-0.52,0.236-1.027,0.434-1.522,0.604L16.646,72.603z"/>
	<path fill="#FFFFFF" d="M79.093,84.53c-0.379,0-0.779-0.025-1.204-0.074c-0.421-0.049-0.83-0.115-1.226-0.203
		c-0.392-0.082-0.751-0.172-1.077-0.271c-0.321-0.1-0.577-0.189-0.759-0.277l0.61-2.619c0.367,0.156,0.838,0.322,1.407,0.5
		c0.569,0.176,1.278,0.264,2.124,0.264c0.97,0,1.68-0.186,2.133-0.549c0.45-0.367,0.673-0.859,0.673-1.482
		c0-0.379-0.078-0.697-0.239-0.961c-0.165-0.26-0.384-0.469-0.668-0.631c-0.281-0.16-0.615-0.275-1.003-0.338
		c-0.388-0.066-0.8-0.096-1.233-0.096h-1.226v-2.535H78.8c0.31,0,0.606-0.025,0.896-0.084c0.289-0.057,0.545-0.152,0.771-0.285
		c0.227-0.135,0.404-0.316,0.54-0.549c0.133-0.234,0.198-0.523,0.198-0.879c0-0.268-0.054-0.498-0.169-0.695
		c-0.111-0.199-0.256-0.359-0.434-0.488c-0.173-0.123-0.379-0.217-0.61-0.283c-0.23-0.062-0.47-0.096-0.71-0.096
		c-0.602,0-1.163,0.096-1.679,0.277c-0.512,0.182-0.981,0.408-1.402,0.676l-1.122-2.303c0.227-0.139,0.49-0.287,0.792-0.445
		c0.305-0.152,0.64-0.297,1.007-0.42c0.362-0.129,0.755-0.234,1.171-0.318c0.413-0.086,0.854-0.127,1.32-0.127
		c0.858,0,1.601,0.104,2.228,0.305c0.628,0.207,1.144,0.496,1.552,0.867s0.714,0.809,0.907,1.307c0.198,0.5,0.297,1.043,0.297,1.633
		c0,0.578-0.16,1.135-0.486,1.68c-0.322,0.541-0.759,0.949-1.308,1.234c0.759,0.309,1.349,0.771,1.762,1.381
		c0.416,0.615,0.622,1.354,0.622,2.211c0,0.678-0.111,1.301-0.334,1.873c-0.227,0.57-0.577,1.064-1.056,1.482
		c-0.482,0.412-1.089,0.738-1.828,0.969C80.982,84.415,80.107,84.53,79.093,84.53z"/>
	<polyline fill="none" stroke="#272C66" stroke-width="3" stroke-miterlimit="10" points="36.761,44.368 36.761,61.794 
		54.188,61.794 	"/>
	<line fill="none" stroke="#272C66" stroke-width="3" stroke-miterlimit="10" x1="36.761" y1="61.794" x2="63.561" y2="34.995"/>
</g>
</svg>
