<?xml version="1.0" encoding="utf-8"?>
<!-- Generator: Adobe Illustrator 16.0.4, SVG Export Plug-In . SVG Version: 6.00 Build 0)  -->
<!DOCTYPE svg PUBLIC "-//W3C//DTD SVG 1.1//EN" "http://www.w3.org/Graphics/SVG/1.1/DTD/svg11.dtd">
<svg version="1.1" id="Layer_1" xmlns="http://www.w3.org/2000/svg" xmlns:xlink="http://www.w3.org/1999/xlink" x="0px" y="0px"
	 width="48.25px" height="150px" viewBox="23.25 -22.25 48.25 150" enable-background="new 23.25 -22.25 48.25 150"
	 xml:space="preserve">
<g>
	<line fill="none" stroke="#4A494A" stroke-width="3" stroke-miterlimit="10" x1="35.526" y1="95.081" x2="35.526" y2="24.739"/>
	<line fill="none" stroke="#4A494A" stroke-width="3" stroke-miterlimit="10" x1="59.979" y1="95.082" x2="59.979" y2="24.737"/>
	<line fill="none" stroke="#4A494A" stroke-width="3" stroke-miterlimit="10" x1="43.676" y1="116.441" x2="43.675" y2="24.738"/>
	<line fill="none" stroke="#4A494A" stroke-width="3" stroke-miterlimit="10" x1="51.826" y1="103.706" x2="51.828" y2="24.736"/>
	<g>
		<path fill="#F8F4ED" stroke="#33291F" stroke-miterlimit="10" d="M30.85-2.867l0.001,21.441l33.367-0.001L64.22-2.868
			c0-9.214-7.469-16.684-16.683-16.683C38.321-19.55,30.852-12.081,30.85-2.867z"/>
		<rect x="30.852" y="18.577" fill="#F8F4ED" stroke="#33291F" stroke-miterlimit="10" width="38.3" height="6.163"/>
	</g>
</g>
<g>
	<circle fill="#F4606B" stroke="#7C1319" stroke-width="0.5" stroke-miterlimit="10" cx="35.527" cy="100.727" r="3.856"/>
	<g>
		<path fill="#7C1319" d="M35.176,98.181c0.721,0,1.274,0.128,1.659,0.385c0.384,0.256,0.576,0.655,0.576,1.196
			c0,0.338-0.078,0.612-0.232,0.822c-0.155,0.211-0.378,0.376-0.67,0.496c0.098,0.121,0.199,0.258,0.306,0.414
			c0.106,0.154,0.211,0.316,0.316,0.485c0.104,0.169,0.205,0.345,0.302,0.528c0.097,0.182,0.187,0.361,0.271,0.536h-1.211
			c-0.088-0.157-0.178-0.316-0.268-0.478c-0.09-0.162-0.184-0.319-0.278-0.473c-0.095-0.151-0.189-0.297-0.282-0.434
			s-0.186-0.26-0.279-0.372H34.85v1.756h-1.082v-4.739c0.235-0.046,0.479-0.079,0.732-0.098
			C34.751,98.189,34.977,98.181,35.176,98.181z M35.238,99.103c-0.079,0-0.149,0.002-0.211,0.008
			c-0.062,0.004-0.122,0.009-0.177,0.013v1.306h0.306c0.407,0,0.698-0.052,0.875-0.153c0.175-0.101,0.264-0.275,0.264-0.52
			c0-0.236-0.089-0.404-0.268-0.504C35.848,99.152,35.585,99.103,35.238,99.103z"/>
	</g>
</g>
<g>
	<circle fill="#B2E27F" stroke="#0E7009" stroke-width="0.5" stroke-miterlimit="10" cx="51.826" cy="109.498" r="3.855"/>
	<g>
		<path fill="#0E7009" d="M52.002,108c-0.504,0-0.869,0.14-1.093,0.42c-0.226,0.279-0.337,0.663-0.337,1.148
			c0,0.235,0.027,0.45,0.084,0.642c0.055,0.192,0.138,0.357,0.248,0.496c0.111,0.139,0.251,0.246,0.418,0.323
			c0.166,0.076,0.361,0.114,0.582,0.114c0.121,0,0.223-0.003,0.309-0.007c0.086-0.005,0.161-0.015,0.227-0.027v-1.673h1.082v2.38
			c-0.129,0.052-0.338,0.106-0.625,0.164c-0.286,0.057-0.641,0.086-1.062,0.086c-0.36,0-0.688-0.056-0.981-0.166
			c-0.294-0.111-0.545-0.273-0.753-0.485c-0.208-0.214-0.369-0.475-0.482-0.785c-0.113-0.31-0.17-0.663-0.17-1.062
			c0-0.402,0.062-0.76,0.187-1.068c0.125-0.311,0.297-0.574,0.514-0.788c0.217-0.215,0.473-0.379,0.767-0.49
			c0.293-0.11,0.607-0.166,0.94-0.166c0.226,0,0.431,0.016,0.614,0.046c0.182,0.029,0.34,0.064,0.472,0.104s0.241,0.08,0.325,0.121
			c0.086,0.043,0.147,0.074,0.186,0.098l-0.314,0.867c-0.146-0.078-0.316-0.147-0.508-0.205C52.438,108.029,52.229,108,52.002,108z"
			/>
	</g>
</g>
<g>
	<g>
		<circle fill="#7284CE" stroke="#262A66" stroke-width="0.5" stroke-miterlimit="10" cx="59.979" cy="100.612" r="3.855"/>
	</g>
	<g>
		<path fill="#262A66" d="M59.806,103.153c-0.264,0-0.526-0.009-0.788-0.024c-0.261-0.016-0.533-0.055-0.815-0.115V98.35
			c0.222-0.04,0.466-0.071,0.729-0.093c0.265-0.021,0.51-0.031,0.736-0.031c0.305,0,0.587,0.022,0.843,0.065
			c0.257,0.045,0.478,0.119,0.662,0.227c0.186,0.106,0.33,0.246,0.435,0.419c0.104,0.175,0.156,0.388,0.156,0.643
			c0,0.384-0.186,0.687-0.555,0.909c0.305,0.115,0.513,0.272,0.624,0.472c0.111,0.198,0.167,0.424,0.167,0.674
			c0,0.504-0.185,0.884-0.552,1.138C61.079,103.025,60.532,103.153,59.806,103.153z M59.257,100.169h0.528
			c0.333,0,0.571-0.043,0.715-0.128c0.144-0.086,0.214-0.224,0.214-0.413c0-0.195-0.073-0.331-0.221-0.41
			c-0.148-0.078-0.366-0.117-0.653-0.117c-0.093,0-0.191,0.001-0.298,0.003c-0.106,0.003-0.201,0.008-0.285,0.018V100.169z
			 M59.257,100.995v1.242c0.079,0.01,0.165,0.016,0.257,0.021c0.093,0.004,0.194,0.007,0.307,0.007c0.323,0,0.585-0.046,0.783-0.139
			c0.199-0.093,0.299-0.264,0.299-0.514c0-0.223-0.084-0.38-0.249-0.475c-0.168-0.096-0.406-0.143-0.716-0.143H59.257z"/>
	</g>
</g>
<g>
	<circle fill="#7C7C7C" stroke="#000000" stroke-width="0.5" stroke-miterlimit="10" cx="43.681" cy="122.01" r="3.856"/>
	<rect x="42.208" y="121.432" width="2.957" height="1.156"/>
</g>
</svg>
